<mxfile host="65bd71144e">
    <diagram id="3kHM830UGbaJpqanN5y0" name="index">
        <mxGraphModel dx="1005" dy="931" grid="1" gridSize="10" guides="1" tooltips="1" connect="1" arrows="1" fold="1" page="1" pageScale="1" pageWidth="827" pageHeight="1169" math="0" shadow="0">
            <root>
                <mxCell id="0"/>
                <mxCell id="1" parent="0"/>
                <mxCell id="y5BSBIiVfF4nKmv03B4p-51" value="fabric.Circle props&lt;br&gt;left, top, radius, strokeWidth" style="text;html=1;align=left;verticalAlign=middle;resizable=0;points=[];autosize=1;strokeColor=none;fillColor=none;" vertex="1" parent="1">
                    <mxGeometry x="460" y="420" width="160" height="30" as="geometry"/>
                </mxCell>
                <mxCell id="y5BSBIiVfF4nKmv03B4p-52" value="fabric.Line props&lt;br&gt;points: [p0, p1, p2, p3], strokeWidth" style="text;html=1;align=left;verticalAlign=middle;resizable=0;points=[];autosize=1;strokeColor=none;fillColor=none;" vertex="1" parent="1">
                    <mxGeometry x="460" y="460" width="200" height="30" as="geometry"/>
                </mxCell>
                <mxCell id="y5BSBIiVfF4nKmv03B4p-53" value="LineLabel props&lt;br&gt;x, y, _x, _y, distance" style="text;html=1;align=left;verticalAlign=middle;resizable=0;points=[];autosize=1;strokeColor=none;fillColor=none;" vertex="1" parent="1">
                    <mxGeometry x="460" y="630" width="120" height="30" as="geometry"/>
                </mxCell>
                <mxCell id="y5BSBIiVfF4nKmv03B4p-54" value="Relationship&lt;br&gt;[x, y, _x, _y] = points[p0, p1, p2, p3]&lt;br&gt;&lt;br&gt;left, top = x, y&lt;br&gt;&lt;br&gt;distance = (&amp;nbsp;(_x - x)^2 + (_y - y)^2 )^1/2" style="text;html=1;align=left;verticalAlign=middle;resizable=0;points=[];autosize=1;strokeColor=none;fillColor=none;" vertex="1" parent="1">
                    <mxGeometry x="460" y="520" width="220" height="80" as="geometry"/>
                </mxCell>
                <mxCell id="y5BSBIiVfF4nKmv03B4p-59" value="" style="group" vertex="1" connectable="0" parent="1">
                    <mxGeometry x="100" y="30" width="670" height="280" as="geometry"/>
                </mxCell>
                <mxCell id="32" value="" style="group" parent="y5BSBIiVfF4nKmv03B4p-59" vertex="1" connectable="0">
                    <mxGeometry width="440" height="280" as="geometry"/>
                </mxCell>
                <mxCell id="4" value="" style="endArrow=none;dashed=1;html=1;entryX=0;entryY=1;entryDx=0;entryDy=0;" parent="32" target="ZHMOSWWr3iShUxf75of7-1" edge="1">
                    <mxGeometry width="50" height="50" relative="1" as="geometry">
                        <mxPoint x="80" y="260" as="sourcePoint"/>
                        <mxPoint x="110" y="320" as="targetPoint"/>
                    </mxGeometry>
                </mxCell>
                <mxCell id="ZHMOSWWr3iShUxf75of7-1" value="" style="whiteSpace=wrap;html=1;" parent="32" vertex="1">
                    <mxGeometry x="80" y="40" width="320" height="200" as="geometry"/>
                </mxCell>
                <mxCell id="ZHMOSWWr3iShUxf75of7-2" value="" style="rounded=0;whiteSpace=wrap;html=1;" parent="32" vertex="1">
                    <mxGeometry x="100" y="60" width="280" height="160" as="geometry"/>
                </mxCell>
                <mxCell id="ZHMOSWWr3iShUxf75of7-3" value="left,top / x,y" style="text;html=1;align=center;verticalAlign=middle;resizable=0;points=[];autosize=1;strokeColor=none;fillColor=none;" parent="32" vertex="1">
                    <mxGeometry width="80" height="20" as="geometry"/>
                </mxCell>
                <mxCell id="ZHMOSWWr3iShUxf75of7-6" value="" style="endArrow=classic;html=1;rounded=0;entryX=0;entryY=0;entryDx=0;entryDy=0;" parent="32" source="ZHMOSWWr3iShUxf75of7-3" target="ZHMOSWWr3iShUxf75of7-1" edge="1">
                    <mxGeometry width="50" height="50" relative="1" as="geometry">
                        <mxPoint x="220" y="130" as="sourcePoint"/>
                        <mxPoint x="270" y="80" as="targetPoint"/>
                    </mxGeometry>
                </mxCell>
                <mxCell id="ZHMOSWWr3iShUxf75of7-19" value="x1,y1" style="text;html=1;align=center;verticalAlign=middle;resizable=0;points=[];autosize=1;strokeColor=none;fillColor=none;" parent="32" vertex="1">
                    <mxGeometry x="400" y="260" width="40" height="20" as="geometry"/>
                </mxCell>
                <mxCell id="ZHMOSWWr3iShUxf75of7-20" value="" style="endArrow=classic;html=1;rounded=0;entryX=1;entryY=1;entryDx=0;entryDy=0;" parent="32" source="ZHMOSWWr3iShUxf75of7-19" target="ZHMOSWWr3iShUxf75of7-1" edge="1">
                    <mxGeometry width="50" height="50" relative="1" as="geometry">
                        <mxPoint x="230" y="200" as="sourcePoint"/>
                        <mxPoint x="280" y="150" as="targetPoint"/>
                    </mxGeometry>
                </mxCell>
                <mxCell id="5" value="" style="endArrow=none;dashed=1;html=1;entryX=1;entryY=1;entryDx=0;entryDy=0;" parent="32" target="ZHMOSWWr3iShUxf75of7-1" edge="1">
                    <mxGeometry width="50" height="50" relative="1" as="geometry">
                        <mxPoint x="400" y="260" as="sourcePoint"/>
                        <mxPoint x="90" y="250" as="targetPoint"/>
                    </mxGeometry>
                </mxCell>
                <mxCell id="6" value="" style="endArrow=none;dashed=1;html=1;exitX=0;exitY=1;exitDx=0;exitDy=0;" parent="32" source="ZHMOSWWr3iShUxf75of7-2" edge="1">
                    <mxGeometry width="50" height="50" relative="1" as="geometry">
                        <mxPoint x="90" y="290" as="sourcePoint"/>
                        <mxPoint x="60" y="220" as="targetPoint"/>
                    </mxGeometry>
                </mxCell>
                <mxCell id="7" value="" style="endArrow=none;dashed=1;html=1;exitX=0;exitY=0;exitDx=0;exitDy=0;" parent="32" source="ZHMOSWWr3iShUxf75of7-1" edge="1">
                    <mxGeometry width="50" height="50" relative="1" as="geometry">
                        <mxPoint x="110" y="230" as="sourcePoint"/>
                        <mxPoint x="60" y="40" as="targetPoint"/>
                    </mxGeometry>
                </mxCell>
                <mxCell id="8" value="" style="endArrow=none;dashed=1;html=1;exitX=1;exitY=0;exitDx=0;exitDy=0;" parent="32" edge="1">
                    <mxGeometry width="50" height="50" relative="1" as="geometry">
                        <mxPoint x="400" y="40" as="sourcePoint"/>
                        <mxPoint x="400" y="20" as="targetPoint"/>
                    </mxGeometry>
                </mxCell>
                <mxCell id="9" value="" style="endArrow=none;dashed=1;html=1;exitX=1;exitY=0;exitDx=0;exitDy=0;" parent="32" edge="1">
                    <mxGeometry width="50" height="50" relative="1" as="geometry">
                        <mxPoint x="79.49000000000001" y="260" as="sourcePoint"/>
                        <mxPoint x="79.49000000000001" y="240" as="targetPoint"/>
                    </mxGeometry>
                </mxCell>
                <mxCell id="11" value="" style="endArrow=none;dashed=1;html=1;exitX=1;exitY=0;exitDx=0;exitDy=0;" parent="32" edge="1">
                    <mxGeometry width="50" height="50" relative="1" as="geometry">
                        <mxPoint x="59.49000000000001" y="240" as="sourcePoint"/>
                        <mxPoint x="79.49000000000001" y="240" as="targetPoint"/>
                    </mxGeometry>
                </mxCell>
                <mxCell id="12" value="" style="endArrow=baseDash;startArrow=baseDash;html=1;startFill=0;endFill=0;" parent="32" edge="1">
                    <mxGeometry width="50" height="50" relative="1" as="geometry">
                        <mxPoint x="380" y="20" as="sourcePoint"/>
                        <mxPoint x="400" y="20" as="targetPoint"/>
                    </mxGeometry>
                </mxCell>
                <mxCell id="13" value="sw" style="edgeLabel;html=1;align=center;verticalAlign=middle;resizable=0;points=[];" parent="12" vertex="1" connectable="0">
                    <mxGeometry x="0.0903" y="-1" relative="1" as="geometry">
                        <mxPoint x="-1" y="-11" as="offset"/>
                    </mxGeometry>
                </mxCell>
                <mxCell id="14" value="" style="endArrow=baseDash;startArrow=baseDash;html=1;startFill=0;endFill=0;" parent="32" edge="1">
                    <mxGeometry width="50" height="50" relative="1" as="geometry">
                        <mxPoint x="59.49000000000001" y="220" as="sourcePoint"/>
                        <mxPoint x="59.49000000000001" y="240" as="targetPoint"/>
                    </mxGeometry>
                </mxCell>
                <mxCell id="15" value="sw" style="edgeLabel;html=1;align=center;verticalAlign=middle;resizable=0;points=[];" parent="14" vertex="1" connectable="0">
                    <mxGeometry x="0.0903" y="-1" relative="1" as="geometry">
                        <mxPoint x="11" y="-1" as="offset"/>
                    </mxGeometry>
                </mxCell>
                <mxCell id="16" value="w" style="endArrow=baseDash;startArrow=baseDash;html=1;startFill=0;endFill=0;" parent="32" edge="1">
                    <mxGeometry width="50" height="50" relative="1" as="geometry">
                        <mxPoint x="80" y="260" as="sourcePoint"/>
                        <mxPoint x="400" y="260" as="targetPoint"/>
                    </mxGeometry>
                </mxCell>
                <mxCell id="18" value="height" style="endArrow=baseDash;startArrow=baseDash;html=1;startFill=0;endFill=0;" parent="32" edge="1">
                    <mxGeometry width="50" height="50" relative="1" as="geometry">
                        <mxPoint x="60" y="40" as="sourcePoint"/>
                        <mxPoint x="60" y="220" as="targetPoint"/>
                    </mxGeometry>
                </mxCell>
                <mxCell id="26" value="" style="endArrow=none;dashed=1;html=1;exitX=0;exitY=0;exitDx=0;exitDy=0;" parent="32" source="ZHMOSWWr3iShUxf75of7-1" edge="1">
                    <mxGeometry width="50" height="50" relative="1" as="geometry">
                        <mxPoint x="79.49000000000001" y="-0.5099999999999909" as="sourcePoint"/>
                        <mxPoint x="79" y="20" as="targetPoint"/>
                    </mxGeometry>
                </mxCell>
                <mxCell id="27" value="" style="endArrow=none;dashed=1;html=1;" parent="32" edge="1">
                    <mxGeometry width="50" height="50" relative="1" as="geometry">
                        <mxPoint x="380" y="60" as="sourcePoint"/>
                        <mxPoint x="380" y="20" as="targetPoint"/>
                    </mxGeometry>
                </mxCell>
                <mxCell id="28" value="width" style="endArrow=baseDash;startArrow=baseDash;html=1;startFill=0;endFill=0;" parent="32" edge="1">
                    <mxGeometry width="50" height="50" relative="1" as="geometry">
                        <mxPoint x="80" y="20" as="sourcePoint"/>
                        <mxPoint x="380" y="20" as="targetPoint"/>
                    </mxGeometry>
                </mxCell>
                <mxCell id="29" value="" style="endArrow=none;dashed=1;html=1;" parent="32" edge="1">
                    <mxGeometry width="50" height="50" relative="1" as="geometry">
                        <mxPoint x="420" y="240" as="sourcePoint"/>
                        <mxPoint x="400" y="240" as="targetPoint"/>
                    </mxGeometry>
                </mxCell>
                <mxCell id="30" value="" style="endArrow=none;dashed=1;html=1;exitX=0;exitY=0;exitDx=0;exitDy=0;" parent="32" edge="1">
                    <mxGeometry width="50" height="50" relative="1" as="geometry">
                        <mxPoint x="419.9999999999999" y="40" as="sourcePoint"/>
                        <mxPoint x="400" y="40" as="targetPoint"/>
                    </mxGeometry>
                </mxCell>
                <mxCell id="31" value="h" style="endArrow=baseDash;startArrow=baseDash;html=1;startFill=0;endFill=0;" parent="32" edge="1">
                    <mxGeometry width="50" height="50" relative="1" as="geometry">
                        <mxPoint x="420" y="39.49000000000001" as="sourcePoint"/>
                        <mxPoint x="420" y="240" as="targetPoint"/>
                    </mxGeometry>
                </mxCell>
                <mxCell id="y5BSBIiVfF4nKmv03B4p-58" value="" style="group" vertex="1" connectable="0" parent="y5BSBIiVfF4nKmv03B4p-59">
                    <mxGeometry x="460" y="60" width="210" height="164" as="geometry"/>
                </mxCell>
                <mxCell id="22" value="&lt;div&gt;&lt;span&gt;fabric.Rect props&lt;/span&gt;&lt;/div&gt;&lt;div&gt;left, top, width, height, strokeWidth&lt;/div&gt;" style="text;html=1;align=left;verticalAlign=middle;resizable=0;points=[];autosize=1;strokeColor=none;fillColor=none;" parent="y5BSBIiVfF4nKmv03B4p-58" vertex="1">
                    <mxGeometry width="200" height="30" as="geometry"/>
                </mxCell>
                <mxCell id="23" value="&lt;div&gt;&lt;span&gt;RectLabel props&lt;/span&gt;&lt;/div&gt;&lt;div&gt;x, y, w, h, x1, y1&lt;/div&gt;" style="text;html=1;align=left;verticalAlign=middle;resizable=0;points=[];autosize=1;strokeColor=none;fillColor=none;" parent="y5BSBIiVfF4nKmv03B4p-58" vertex="1">
                    <mxGeometry y="134" width="100" height="30" as="geometry"/>
                </mxCell>
                <mxCell id="24" value="&lt;div&gt;Relationship&lt;/div&gt;&lt;div&gt;&lt;/div&gt;w, h&lt;span style=&quot;white-space: pre&quot;&gt;&#9;&lt;/span&gt;= (width, height) + strokeWidth&lt;br&gt;&lt;span style=&quot;white-space: pre&quot;&gt;&#9;&lt;/span&gt;= (x1, y1) - (x, y)&lt;br&gt;x, y&amp;nbsp;&lt;span style=&quot;white-space: pre&quot;&gt;&#9;&lt;/span&gt;= left, top" style="text;html=1;align=left;verticalAlign=middle;resizable=0;points=[];autosize=1;strokeColor=none;fillColor=none;" parent="y5BSBIiVfF4nKmv03B4p-58" vertex="1">
                    <mxGeometry y="50" width="210" height="60" as="geometry"/>
                </mxCell>
                <mxCell id="y5BSBIiVfF4nKmv03B4p-68" value="" style="group" vertex="1" connectable="0" parent="1">
                    <mxGeometry x="160" y="400" width="280" height="320" as="geometry"/>
                </mxCell>
                <mxCell id="y5BSBIiVfF4nKmv03B4p-66" value="" style="group" vertex="1" connectable="0" parent="y5BSBIiVfF4nKmv03B4p-68">
                    <mxGeometry width="280" height="280" as="geometry"/>
                </mxCell>
                <mxCell id="y5BSBIiVfF4nKmv03B4p-32" value="" style="ellipse;whiteSpace=wrap;html=1;aspect=fixed;" vertex="1" parent="y5BSBIiVfF4nKmv03B4p-66">
                    <mxGeometry width="220" height="220" as="geometry"/>
                </mxCell>
                <mxCell id="y5BSBIiVfF4nKmv03B4p-33" value="" style="ellipse;whiteSpace=wrap;html=1;aspect=fixed;" vertex="1" parent="y5BSBIiVfF4nKmv03B4p-66">
                    <mxGeometry x="30" y="30" width="160" height="160" as="geometry"/>
                </mxCell>
                <mxCell id="y5BSBIiVfF4nKmv03B4p-34" value="" style="rounded=0;whiteSpace=wrap;html=1;rotation=45;" vertex="1" parent="y5BSBIiVfF4nKmv03B4p-66">
                    <mxGeometry x="80" y="150" width="200" height="60" as="geometry"/>
                </mxCell>
                <mxCell id="y5BSBIiVfF4nKmv03B4p-43" value="" style="endArrow=none;dashed=1;html=1;entryX=0;entryY=0.5;entryDx=0;entryDy=0;" edge="1" parent="y5BSBIiVfF4nKmv03B4p-66" target="y5BSBIiVfF4nKmv03B4p-33">
                    <mxGeometry width="50" height="50" relative="1" as="geometry">
                        <mxPoint x="30" y="240" as="sourcePoint"/>
                        <mxPoint x="30" y="110" as="targetPoint"/>
                    </mxGeometry>
                </mxCell>
                <mxCell id="y5BSBIiVfF4nKmv03B4p-44" value="" style="endArrow=none;dashed=1;html=1;entryX=0;entryY=0.5;entryDx=0;entryDy=0;" edge="1" parent="y5BSBIiVfF4nKmv03B4p-66" target="y5BSBIiVfF4nKmv03B4p-34">
                    <mxGeometry width="50" height="50" relative="1" as="geometry">
                        <mxPoint x="110" y="240" as="sourcePoint"/>
                        <mxPoint x="-70" y="190" as="targetPoint"/>
                    </mxGeometry>
                </mxCell>
                <mxCell id="y5BSBIiVfF4nKmv03B4p-45" value="radius" style="endArrow=baseDash;startArrow=baseDash;html=1;startFill=0;endFill=0;" edge="1" parent="y5BSBIiVfF4nKmv03B4p-66">
                    <mxGeometry width="50" height="50" relative="1" as="geometry">
                        <mxPoint x="30" y="240" as="sourcePoint"/>
                        <mxPoint x="110" y="240" as="targetPoint"/>
                    </mxGeometry>
                </mxCell>
                <mxCell id="y5BSBIiVfF4nKmv03B4p-46" value="" style="endArrow=none;dashed=1;html=1;entryX=0;entryY=0.5;entryDx=0;entryDy=0;" edge="1" parent="y5BSBIiVfF4nKmv03B4p-66" target="y5BSBIiVfF4nKmv03B4p-32">
                    <mxGeometry width="50" height="50" relative="1" as="geometry">
                        <mxPoint y="240" as="sourcePoint"/>
                        <mxPoint x="-30" y="120" as="targetPoint"/>
                    </mxGeometry>
                </mxCell>
                <mxCell id="y5BSBIiVfF4nKmv03B4p-47" value="sw/2" style="endArrow=baseDash;startArrow=baseDash;html=1;startFill=0;endFill=0;" edge="1" parent="y5BSBIiVfF4nKmv03B4p-66">
                    <mxGeometry width="50" height="50" relative="1" as="geometry">
                        <mxPoint y="240" as="sourcePoint"/>
                        <mxPoint x="30" y="240" as="targetPoint"/>
                    </mxGeometry>
                </mxCell>
                <mxCell id="y5BSBIiVfF4nKmv03B4p-55" value="sw" style="endArrow=baseDash;startArrow=baseDash;html=1;startFill=0;endFill=0;" edge="1" parent="y5BSBIiVfF4nKmv03B4p-66">
                    <mxGeometry width="50" height="50" relative="1" as="geometry">
                        <mxPoint x="280" y="240" as="sourcePoint"/>
                        <mxPoint x="240" y="280" as="targetPoint"/>
                    </mxGeometry>
                </mxCell>
                <mxCell id="y5BSBIiVfF4nKmv03B4p-56" value="" style="endArrow=none;dashed=1;html=1;exitX=1;exitY=0;exitDx=0;exitDy=0;" edge="1" parent="y5BSBIiVfF4nKmv03B4p-66" source="y5BSBIiVfF4nKmv03B4p-34">
                    <mxGeometry width="50" height="50" relative="1" as="geometry">
                        <mxPoint x="240" y="89.56999999999994" as="sourcePoint"/>
                        <mxPoint x="280" y="240" as="targetPoint"/>
                    </mxGeometry>
                </mxCell>
                <mxCell id="y5BSBIiVfF4nKmv03B4p-57" value="" style="endArrow=none;dashed=1;html=1;exitX=1;exitY=1;exitDx=0;exitDy=0;" edge="1" parent="y5BSBIiVfF4nKmv03B4p-66" source="y5BSBIiVfF4nKmv03B4p-34">
                    <mxGeometry width="50" height="50" relative="1" as="geometry">
                        <mxPoint x="310" y="150" as="sourcePoint"/>
                        <mxPoint x="240" y="280" as="targetPoint"/>
                    </mxGeometry>
                </mxCell>
                <mxCell id="y5BSBIiVfF4nKmv03B4p-61" style="edgeStyle=none;html=1;entryX=0;entryY=0.5;entryDx=0;entryDy=0;startArrow=none;startFill=0;endArrow=classic;endFill=1;" edge="1" parent="y5BSBIiVfF4nKmv03B4p-66" source="y5BSBIiVfF4nKmv03B4p-60" target="y5BSBIiVfF4nKmv03B4p-34">
                    <mxGeometry relative="1" as="geometry"/>
                </mxCell>
                <mxCell id="y5BSBIiVfF4nKmv03B4p-60" value="left,top" style="text;html=1;align=center;verticalAlign=middle;resizable=0;points=[];autosize=1;strokeColor=none;fillColor=none;" vertex="1" parent="y5BSBIiVfF4nKmv03B4p-66">
                    <mxGeometry x="50" y="70" width="50" height="20" as="geometry"/>
                </mxCell>
                <mxCell id="y5BSBIiVfF4nKmv03B4p-63" style="edgeStyle=none;html=1;startArrow=none;startFill=0;endArrow=classic;endFill=1;" edge="1" parent="y5BSBIiVfF4nKmv03B4p-66" source="y5BSBIiVfF4nKmv03B4p-62">
                    <mxGeometry relative="1" as="geometry">
                        <mxPoint x="110" y="110" as="targetPoint"/>
                    </mxGeometry>
                </mxCell>
                <mxCell id="y5BSBIiVfF4nKmv03B4p-62" value="x,y / p0,p1" style="text;html=1;align=center;verticalAlign=middle;resizable=0;points=[];autosize=1;strokeColor=none;fillColor=none;" vertex="1" parent="y5BSBIiVfF4nKmv03B4p-66">
                    <mxGeometry x="110" y="140" width="70" height="20" as="geometry"/>
                </mxCell>
                <mxCell id="y5BSBIiVfF4nKmv03B4p-65" style="edgeStyle=none;html=1;entryX=1;entryY=0.5;entryDx=0;entryDy=0;startArrow=none;startFill=0;endArrow=classic;endFill=1;" edge="1" parent="y5BSBIiVfF4nKmv03B4p-66" source="y5BSBIiVfF4nKmv03B4p-64" target="y5BSBIiVfF4nKmv03B4p-34">
                    <mxGeometry relative="1" as="geometry"/>
                </mxCell>
                <mxCell id="y5BSBIiVfF4nKmv03B4p-64" value="_x,_y / p2,p3" style="text;html=1;align=center;verticalAlign=middle;resizable=0;points=[];autosize=1;strokeColor=none;fillColor=none;" vertex="1" parent="y5BSBIiVfF4nKmv03B4p-66">
                    <mxGeometry x="180" y="210" width="80" height="20" as="geometry"/>
                </mxCell>
                <mxCell id="y5BSBIiVfF4nKmv03B4p-67" value="OrginX = OriginY = 'center'" style="text;html=1;align=left;verticalAlign=middle;resizable=0;points=[];autosize=1;strokeColor=none;fillColor=none;" vertex="1" parent="y5BSBIiVfF4nKmv03B4p-66">
                    <mxGeometry y="260" width="160" height="20" as="geometry"/>
                </mxCell>
            </root>
        </mxGraphModel>
    </diagram>
</mxfile>